<?xml version="1.0" encoding="UTF-8" standalone="no"?>
<svg
   xmlns:dc="http://purl.org/dc/elements/1.1/"
   xmlns:cc="http://creativecommons.org/ns#"
   xmlns:rdf="http://www.w3.org/1999/02/22-rdf-syntax-ns#"
   xmlns:svg="http://www.w3.org/2000/svg"
   xmlns="http://www.w3.org/2000/svg"
   xmlns:sodipodi="http://sodipodi.sourceforge.net/DTD/sodipodi-0.dtd"
   xmlns:inkscape="http://www.inkscape.org/namespaces/inkscape"
   width="24"
   height="24"
   preserveAspectRatio="xMidYMid meet"
   viewBox="0 0 24 24"
   style="-ms-transform: rotate(360deg); -webkit-transform: rotate(360deg); transform: rotate(360deg);"
   version="1.1"
   id="svg3900"
   sodipodi:docname="15.svg"
   inkscape:version="0.92.4 (5da689c313, 2019-01-14)">
  <metadata
     id="metadata3906">
    <rdf:RDF>
      <cc:Work
         rdf:about="">
        <dc:format>image/svg+xml</dc:format>
        <dc:type
           rdf:resource="http://purl.org/dc/dcmitype/StillImage" />
        <dc:title></dc:title>
      </cc:Work>
    </rdf:RDF>
  </metadata>
  <defs
     id="defs3904" />
  <sodipodi:namedview
     pagecolor="#ffffff"
     bordercolor="#666666"
     borderopacity="1"
     objecttolerance="10"
     gridtolerance="10"
     guidetolerance="10"
     inkscape:pageopacity="0"
     inkscape:pageshadow="2"
     inkscape:window-width="1920"
     inkscape:window-height="1017"
     id="namedview3902"
     showgrid="false"
     inkscape:zoom="39.333333"
     inkscape:cx="14.857741"
     inkscape:cy="11.948125"
     inkscape:window-x="-8"
     inkscape:window-y="-8"
     inkscape:window-maximized="1"
     inkscape:current-layer="svg3900" />
  <path
     d="m 21,16.5 c 0,0.38 -0.21,0.71 -0.53,0.88 l -7.9,4.44 C 12.41,21.94 12.21,22 12,22 11.79,22 11.59,21.94 11.43,21.82 L 3.53,17.38 C 3.2032201,17.208276 2.9989748,16.869152 3,16.5 v -9 C 3,7.12 3.21,6.79 3.53,6.62 l 7.9,-4.44 C 11.59,2.06 11.79,2 12,2 c 0.21,0 0.41,0.06 0.57,0.18 l 7.9,4.44 C 20.79,6.79 21,7.12 21,7.5 v 9 M 12,4.15 5,8.09 v 7.82 l 7,3.94 7,-3.94 V 8.09 L 12,4.15"
     id="path3896"
     inkscape:connector-curvature="0"
     style="fill:#626262"
     sodipodi:nodetypes="cccscccsccsccscccccccc" />
  <text
     xml:space="preserve"
     style="font-style:normal;font-weight:normal;font-size:10.66666698px;line-height:1.25;font-family:sans-serif;text-align:center;letter-spacing:0px;word-spacing:0px;text-anchor:middle;fill:#626262;fill-opacity:1;stroke:none"
     x="11.949152"
     y="15.788136"
     id="text3910"><tspan
       sodipodi:role="line"
       id="tspan3908"
       x="11.949152"
       y="15.788136">15</tspan></text>
</svg>
