<?xml version="1.0" encoding="UTF-8" standalone="no"?>
<svg
   xmlns:dc="http://purl.org/dc/elements/1.1/"
   xmlns:cc="http://creativecommons.org/ns#"
   xmlns:rdf="http://www.w3.org/1999/02/22-rdf-syntax-ns#"
   xmlns:svg="http://www.w3.org/2000/svg"
   xmlns="http://www.w3.org/2000/svg"
   xmlns:sodipodi="http://sodipodi.sourceforge.net/DTD/sodipodi-0.dtd"
   xmlns:inkscape="http://www.inkscape.org/namespaces/inkscape"
   width="48"
   height="24"
   preserveAspectRatio="xMidYMid meet"
   viewBox="0 0 48 24"
   version="1.1"
   id="svg3956"
   sodipodi:docname="100.svg"
   inkscape:version="0.92.4 (5da689c313, 2019-01-14)">
  <metadata
     id="metadata3962">
    <rdf:RDF>
      <cc:Work
         rdf:about="">
        <dc:format>image/svg+xml</dc:format>
        <dc:type
           rdf:resource="http://purl.org/dc/dcmitype/StillImage" />
        <dc:title></dc:title>
      </cc:Work>
    </rdf:RDF>
  </metadata>
  <defs
     id="defs3960" />
  <sodipodi:namedview
     pagecolor="#ffffff"
     bordercolor="#666666"
     borderopacity="1"
     objecttolerance="10"
     gridtolerance="10"
     guidetolerance="10"
     inkscape:pageopacity="0"
     inkscape:pageshadow="2"
     inkscape:window-width="1920"
     inkscape:window-height="1017"
     id="namedview3958"
     showgrid="false"
     inkscape:zoom="27.812867"
     inkscape:cx="19.535197"
     inkscape:cy="6.5285512"
     inkscape:window-x="-8"
     inkscape:window-y="-8"
     inkscape:window-maximized="1"
     inkscape:current-layer="svg3956" />
  <path
     d="m 22.75841,10.8 c 0.6,0.7 0.6,1.7 0,2.4 l -8.3,8.3 c -0.7,0.7 -1.7,0.7 -2.4,0 L 3.7584103,13.2 c -0.7,-0.7 -0.7,-1.7 0,-2.4 L 12.05841,2.5 c 0.7,-0.7 1.7,-0.7 2.4,0 l 8.3,8.3 m -1.2,1.2 -8.3,-8.3 -8.2999997,8.3 8.2999997,8.3 8.3,-8.3"
     id="path3952"
     inkscape:connector-curvature="0"
     style="fill:#626262"
     sodipodi:nodetypes="ccsssssscccccc" />
  <text
     xml:space="preserve"
     style="font-style:normal;font-weight:normal;font-size:10.66666698px;line-height:1.25;font-family:sans-serif;text-align:center;letter-spacing:-1.75px;word-spacing:0px;text-anchor:middle;fill:#626262;fill-opacity:1;stroke:none"
     x="13.231288"
     y="15.658538"
     id="text3966"><tspan
       sodipodi:role="line"
       x="12.356288"
       y="15.658538"
       style="line-height:2;letter-spacing:-1.75px"
       id="tspan4152">00</tspan></text>
  <path
     d="m 43.432295,10.8 c 0.6,0.7 0.6,1.7 0,2.4 l -8.3,8.3 c -0.7,0.7 -1.7,0.7 -2.4,0 l -8.299999,-8.3 c -0.7,-0.7 -0.7,-1.7 0,-2.4 l 8.299999,-8.3 c 0.7,-0.7 1.7,-0.7 2.4,0 l 8.3,8.3 m -1.2,1.2 -8.3,-8.3 -8.299999,8.3 8.299999,8.3 8.3,-8.3"
     id="path3952-3"
     inkscape:connector-curvature="0"
     style="fill:#626262"
     sodipodi:nodetypes="ccsssssscccccc" />
  <text
     xml:space="preserve"
     style="font-style:normal;font-weight:normal;font-size:10.66666698px;line-height:1.25;font-family:sans-serif;text-align:center;letter-spacing:-1.75px;word-spacing:0px;text-anchor:middle;fill:#626262;fill-opacity:1;stroke:none"
     x="33.90517"
     y="15.658537"
     id="text3966-5"><tspan
       sodipodi:role="line"
       id="tspan3964-4"
       x="33.03017"
       y="15.658537"
       style="line-height:2;letter-spacing:-1.75px">0</tspan></text>
</svg>
